<?xml version="1.0" standalone="no"?>
<!DOCTYPE svg PUBLIC "-//W3C//DTD SVG 20010904//EN"
 "http://www.w3.org/TR/2001/REC-SVG-20010904/DTD/svg10.dtd">
<svg version="1.0" xmlns="http://www.w3.org/2000/svg"
 width="512.000000pt" height="512.000000pt" viewBox="0 0 512.000000 512.000000"
 preserveAspectRatio="xMidYMid meet">
<metadata>
Created by potrace 1.11, written by Peter Selinger 2001-2013
</metadata>
<g transform="translate(0.000000,512.000000) scale(0.100000,-0.100000)"
fill="#000000" stroke="none">
<path d="M2295 4959 c-544 -59 -1050 -303 -1440 -694 -386 -387 -627 -888
-691 -1441 -21 -182 -14 -486 15 -659 52 -308 160 -604 311 -855 392 -653
1054 -1079 1802 -1160 124 -13 371 -13 496 0 528 56 1016 285 1403 658 412
397 668 918 729 1489 18 162 8 504 -19 658 -68 394 -217 740 -457 1061 -373
499 -931 832 -1559 930 -122 19 -466 26 -590 13z m560 -24 c790 -110 1473
-604 1820 -1320 154 -317 229 -620 242 -975 16 -434 -78 -842 -282 -1227 -106
-200 -226 -363 -400 -542 -370 -381 -830 -617 -1360 -697 -167 -26 -503 -26
-670 0 -404 61 -769 215 -1100 464 -112 85 -333 301 -417 407 -272 347 -436
730 -504 1175 -22 143 -25 490 -5 630 66 477 256 911 554 1266 309 367 752
646 1210 763 301 77 618 97 912 56z"/>
<path d="M2310 4680 c-300 -37 -607 -144 -854 -299 -142 -89 -256 -180 -381
-306 -337 -337 -547 -764 -610 -1239 -14 -104 -16 -172 -12 -345 4 -119 10
-234 14 -256 l8 -40 402 -3 401 -2 6 24 c3 13 56 241 116 507 61 266 117 494
126 506 17 27 55 30 78 8 17 -18 7 14 261 -822 105 -342 193 -619 197 -615 4
4 74 184 156 401 83 216 156 398 164 402 7 5 27 8 43 7 28 -3 40 -21 202 -303
95 -165 177 -299 181 -298 5 1 79 43 164 93 l155 90 740 0 740 0 6 38 c4 20
11 100 18 177 33 421 -73 871 -295 1249 -125 213 -346 463 -536 607 -278 212
-589 347 -930 404 -112 19 -450 28 -560 15z"/>
<path d="M1476 2542 c-58 -256 -104 -434 -113 -444 -15 -17 -48 -18 -440 -18
-232 0 -423 -3 -423 -6 0 -20 46 -180 74 -257 272 -742 922 -1275 1685 -1381
142 -20 422 -20 560 -1 354 50 666 179 956 394 313 232 559 554 711 929 34 84
94 281 94 309 0 11 -126 13 -708 13 l-708 0 -181 -105 c-99 -58 -192 -105
-205 -105 -14 0 -32 8 -40 18 -8 9 -77 126 -152 259 -76 133 -143 249 -150
258 -10 13 -38 -54 -170 -402 -87 -230 -166 -426 -174 -435 -18 -22 -55 -23
-75 -3 -19 18 -7 -19 -242 755 -108 355 -198 646 -199 647 -1 2 -46 -190 -100
-425z"/>
</g>
</svg>
